<?xml version="1.0" encoding="UTF-8" standalone="no"?>
<svg
   xmlns:dc="http://purl.org/dc/elements/1.1/"
   xmlns:cc="http://creativecommons.org/ns#"
   xmlns:rdf="http://www.w3.org/1999/02/22-rdf-syntax-ns#"
   xmlns:svg="http://www.w3.org/2000/svg"
   xmlns="http://www.w3.org/2000/svg"
   xmlns:sodipodi="http://sodipodi.sourceforge.net/DTD/sodipodi-0.dtd"
   xmlns:inkscape="http://www.inkscape.org/namespaces/inkscape"
   version="1.1"
   id="svg19"
   sodipodi:docname="logo.svg"
   width="1051.3427"
   height="845.26953"
   inkscape:version="0.92.4 (5da689c313, 2019-01-14)">
  <metadata
     id="metadata23">
    <rdf:RDF>
      <cc:Work
         rdf:about="">
        <dc:format>image/svg+xml</dc:format>
        <dc:type
           rdf:resource="http://purl.org/dc/dcmitype/StillImage" />
        <dc:title></dc:title>
      </cc:Work>
    </rdf:RDF>
  </metadata>
  <sodipodi:namedview
     pagecolor="#ffffff"
     bordercolor="#666666"
     borderopacity="1"
     objecttolerance="10"
     gridtolerance="10"
     guidetolerance="10"
     inkscape:pageopacity="0"
     inkscape:pageshadow="2"
     inkscape:window-width="1920"
     inkscape:window-height="1001"
     id="namedview21"
     showgrid="false"
     fit-margin-top="0"
     fit-margin-left="0"
     fit-margin-right="0"
     fit-margin-bottom="0"
     inkscape:zoom="0.65334959"
     inkscape:cx="-22.703773"
     inkscape:cy="396.02251"
     inkscape:window-x="-9"
     inkscape:window-y="-9"
     inkscape:window-maximized="1"
     inkscape:current-layer="svg19" />
  <defs
     id="defs15">
    <symbol
       id="icon-ufclogo"
       viewBox="0 0 1325 1024">
      <title
         id="title2">UFC Que Choisir</title>
      <path
         class="path1"
         d="M 56.072,6.434 H 1325.501 V 626.901 H 56.072 Z M 52.395,0 H 1325.501 V 619.548 H 52.395 Z"
         id="path4"
         inkscape:connector-curvature="0"
         style="fill:#005aa9" />
      <path
         class="path2"
         d="M 52.395,620.467 V 1024 h 1195.892 c 0,0 77.214,0 77.214,-77.214 V 620.466 H 52.395 Z"
         id="path6"
         inkscape:connector-curvature="0"
         style="fill:#ec1c24" />
      <path
         class="path3"
         d="m 501.889,407.21 c 7.354,-28.496 11.031,-62.506 11.031,-102.952 0,-38.607 -3.677,-72.618 -11.031,-101.113 -7.354,-28.495 -18.384,-51.476 -34.011,-70.779 -15.627,-18.384 -35.849,-32.172 -59.749,-41.364 -23.9,-9.192 -53.314,-13.788 -88.244,-13.788 -34.011,0 -63.425,4.596 -88.244,13.788 -24.819,9.192 -44.122,22.98 -59.749,41.364 -15.627,18.384 -26.657,42.284 -34.93,70.779 -7.354,28.496 -11.031,62.506 -11.031,101.113 0,78.133 15.627,135.124 45.961,171.892 30.334,36.768 79.971,55.153 147.074,55.153 33.092,0 60.668,-3.677 84.567,-11.95 l 19.303,27.576 94.679,-32.172 -45.041,-44.122 c 12.869,-16.546 22.98,-37.688 29.415,-63.425 z m -223.368,30.334 c -11.95,-3.677 -21.142,-11.031 -28.496,-22.061 -7.354,-10.111 -11.95,-24.819 -15.627,-42.284 -2.758,-17.465 -4.596,-40.445 -4.596,-68.022 0,-27.577 1.838,-50.557 4.596,-68.022 2.758,-18.384 8.273,-32.172 15.627,-42.284 7.354,-10.112 16.546,-17.465 27.576,-21.142 11.95,-3.677 25.738,-5.515 42.284,-5.515 16.546,0 31.253,1.838 42.284,5.515 11.95,3.677 21.142,11.031 27.576,21.142 7.354,10.111 11.95,24.819 15.627,42.284 2.758,18.384 4.596,40.445 4.596,68.022 0,27.577 -1.838,50.557 -4.596,68.022 -2.758,18.384 -8.273,32.172 -15.627,42.284 -7.354,10.112 -16.546,17.465 -27.576,22.061 -11.95,3.677 -25.738,6.434 -41.364,6.434 -16.546,0 -31.253,-1.838 -42.284,-6.434 z m 527.626,-71.698 c 0,26.657 -8.273,45.961 -20.223,58.829 -11.95,11.95 -33.092,18.384 -60.668,18.384 -27.576,0 -50.557,-6.434 -62.506,-18.384 -12.869,-11.95 -21.142,-31.253 -21.142,-58.829 V 82.729 h -91.921 v 284.955 c 0,56.072 13.788,97.436 44.122,124.093 30.334,26.657 72.618,40.445 130.528,40.445 117.659,0 174.65,-55.153 174.65,-164.539 V 82.728 h -91.921 v 283.117 z m 238.995,75.375 V 340.108 H 1210.6 V 257.379 H 1045.142 V 174.65 h 193.953 l -1.838,-91.921 H 944.029 V 523.95 h 302.42 l 1.838,-82.729 z"
         id="path8"
         inkscape:connector-curvature="0"
         style="fill:#ffffff" />
      <path
         class="path4"
         d="m 260.136,891.634 c -6.434,1.838 -14.707,1.838 -22.061,1.838 -10.111,0 -18.384,-0.919 -24.819,-3.677 -6.434,-1.838 -11.95,-6.434 -16.546,-11.031 -3.677,-5.515 -7.354,-12.869 -9.192,-21.142 -1.838,-9.192 -2.758,-20.223 -2.758,-34.011 0,-12.869 0.919,-22.98 2.758,-32.172 1.838,-8.273 4.596,-15.627 8.273,-20.223 3.677,-4.596 9.192,-9.192 15.627,-11.031 6.434,-1.838 14.707,-3.677 24.819,-3.677 8.273,0 15.627,0.919 22.98,1.838 7.353,0.919 13.788,2.758 19.303,5.515 l 4.596,-41.364 c -2.758,-0.919 -6.434,-1.838 -10.111,-3.677 -3.677,-0.919 -8.273,-1.838 -12.869,-2.758 -4.596,-0.92 -9.192,-1.838 -13.788,-1.838 -4.596,0 -9.192,-0.919 -12.869,-0.919 -34.011,0 -59.749,9.192 -75.375,27.576 -15.626,18.384 -23.899,45.961 -23.899,81.81 0,38.607 8.273,67.102 23.899,85.487 15.626,18.385 39.526,27.576 72.618,27.576 9.192,0 19.303,-0.919 28.496,-3.677 9.192,-1.838 17.465,-4.596 24.819,-8.273 l -4.596,-39.526 c -5.515,4.596 -11.95,6.434 -19.303,7.354 z m 178.327,-91.921 h -82.729 v -82.729 h -45.961 v 211.418 h 45.961 v -82.729 h 82.729 v 82.729 h 45.961 V 716.984 h -45.961 z m 303.34,-82.729 h 45.961 v 211.418 h -45.961 z m 198.549,102.951 c -7.354,-4.596 -15.627,-8.273 -23.899,-11.95 -8.273,-2.758 -16.546,-5.515 -23.899,-8.273 -7.353,-2.758 -13.788,-5.515 -18.384,-9.192 -4.596,-3.677 -7.354,-7.354 -7.354,-12.869 0,-2.758 0.919,-5.515 1.838,-8.273 0.919,-2.758 2.758,-4.596 5.515,-6.434 2.758,-1.838 6.434,-3.677 10.111,-4.596 4.596,-0.919 10.111,-1.838 16.546,-1.838 8.273,0 16.546,0.919 25.738,2.758 8.273,1.838 17.465,3.677 26.657,6.434 l 6.434,-40.445 c -8.273,-3.677 -17.465,-6.434 -28.496,-8.273 -10.111,-1.838 -21.142,-2.758 -31.253,-2.758 -13.788,0 -24.819,1.838 -34.93,5.515 -10.111,3.677 -17.465,8.273 -23.899,13.788 -6.434,6.434 -11.031,12.869 -13.788,21.142 -2.757,8.273 -4.596,16.546 -4.596,25.738 0,11.95 2.758,22.061 7.354,29.415 4.596,7.354 11.031,13.788 18.384,18.384 7.353,4.596 15.627,9.192 23.899,11.95 8.273,2.758 16.546,5.515 23.899,8.273 7.353,2.758 13.788,5.515 18.384,9.192 4.596,3.677 7.354,8.273 7.354,13.788 0,7.354 -2.758,12.869 -8.273,17.465 -5.515,3.677 -13.788,6.434 -25.738,6.434 -11.031,0 -21.142,-1.838 -30.334,-3.677 -10.111,-2.758 -19.303,-6.434 -28.496,-11.95 l -6.434,41.364 c 9.192,4.596 19.303,9.192 30.334,11.95 11.031,2.758 22.98,4.596 35.849,4.596 24.819,0 45.041,-6.434 58.829,-18.384 13.788,-11.95 21.142,-28.496 21.142,-50.557 0,-11.95 -2.758,-22.061 -7.354,-29.415 -8.273,-8.273 -13.788,-14.707 -21.142,-19.303 z m 58.829,-102.951 h 45.961 v 211.418 h -45.961 z m 209.58,124.093 c 11.95,-3.677 20.223,-9.192 26.657,-19.303 6.434,-10.111 9.192,-22.061 9.192,-36.768 0,-22.98 -6.434,-40.445 -20.223,-51.476 -12.869,-11.031 -33.092,-16.546 -59.749,-16.546 h -74.456 v 211.418 h 45.961 v -73.537 h 28.496 l 37.688,73.537 h 56.072 l -49.637,-87.325 z m -21.142,-29.415 c -4.596,3.677 -11.95,6.434 -22.98,6.434 h -27.576 v -55.153 h 28.496 c 11.031,0 18.384,0 22.98,3.677 4.596,3.677 6.434,11.031 6.434,22.061 -0.919,11.031 -2.758,18.384 -7.354,22.98 z M 681.135,741.803 c -7.354,-9.192 -17.465,-15.627 -29.415,-20.223 -11.95,-4.596 -26.657,-6.434 -43.203,-6.434 -16.546,0 -31.253,1.838 -43.203,6.434 -11.95,4.596 -22.061,11.031 -29.415,20.223 -7.354,9.192 -12.869,20.223 -16.546,34.011 -2.758,14.707 -4.596,30.334 -4.596,49.637 0,37.688 7.354,66.183 22.98,83.648 14.707,18.384 38.607,26.657 71.698,26.657 16.546,0 31.253,-1.838 43.203,-6.434 11.95,-4.596 22.061,-11.031 29.415,-20.223 7.354,-9.192 12.869,-20.223 16.546,-34.93 3.677,-13.788 5.515,-30.334 5.515,-50.557 0,-19.303 -1.838,-35.849 -5.515,-49.637 -3.677,-11.95 -9.192,-22.98 -17.465,-32.172 z m -30.334,116.739 c -1.838,9.192 -3.677,15.627 -7.354,21.142 -3.677,5.515 -8.273,8.273 -13.788,11.031 -5.515,1.838 -12.869,2.758 -20.223,2.758 -8.273,0 -14.707,-0.919 -21.142,-2.758 -5.515,-1.838 -10.111,-5.515 -13.788,-11.031 -3.677,-5.516 -6.434,-11.95 -7.354,-21.142 -1.838,-9.192 -1.838,-20.223 -1.838,-33.092 0,-13.788 0.919,-24.819 1.838,-33.092 1.838,-9.192 3.677,-15.627 7.354,-21.142 3.677,-4.596 8.273,-8.273 13.788,-10.111 5.515,-1.838 12.869,-2.758 21.142,-2.758 8.273,0 14.707,0.919 21.142,2.758 5.515,1.838 10.111,5.515 13.788,10.111 3.677,4.596 5.515,11.95 7.354,21.142 1.838,9.192 1.838,20.223 1.838,33.092 0,13.788 -0.919,24.819 -2.758,33.092 z"
         id="path10"
         inkscape:connector-curvature="0"
         style="fill:#fff229" />
      <path
         class="path5"
         d="m 52.395,509.242 v 221.53 L 288.632,619.548 Z"
         id="path12"
         inkscape:connector-curvature="0"
         style="fill:#56b263" />
    </symbol>
  </defs>
  <path
     style="fill:#005aa9;fill-opacity:1;stroke:#005aa9;stroke-width:1.04610622;stroke-opacity:1"
     d="m 194.52831,511.09017 c -0.54686,-0.53831 -44.30257,-21.19613 -97.2356,-45.9061 L 1.0509412,420.25681 0.78733346,210.38995 0.52371055,0.52305311 H 525.67173 1050.8196 V 256.29604 512.06901 H 623.17138 c -264.10412,0 -428.02828,-0.37435 -428.64208,-0.97887 z m 146.95163,-71.25338 c 18.74239,-6.35699 36.11315,-12.3188 38.6017,-13.24853 l 4.52457,-1.69039 -18.33915,-18.39622 -18.33924,-18.39621 4.20291,-6.27664 c 16.89818,-25.23598 26.3343,-62.6332 27.97923,-110.88727 C 382.41945,203.19599 373.11743,153.62122 351.95683,120.9 325.69242,80.286643 279.61367,61.369813 212.43884,63.623353 167.7012,65.124183 137.56419,74.658173 112.34951,95.287113 85.351781,117.37484 69.046913,154.09197 62.684243,207.12905 c -2.439391,20.3341 -2.445637,66.67032 -0.01061,86.82683 4.393109,36.38002 12.33412,62.56103 25.673473,84.64342 25.490054,42.19711 72.773534,62.18809 141.727604,59.92104 20.70309,-0.68075 34.58329,-2.49757 49.58532,-6.49046 5.37932,-1.4318 9.95081,-2.60326 10.15882,-2.60326 0.20774,0 3.7861,4.94286 7.95152,10.98412 4.16528,6.04126 8.03683,10.98412 8.60335,10.98412 0.56654,0 16.36477,-5.20114 35.10719,-11.55807 z m 233.99299,-1.03335 c 74.02464,-5.9498 113.43605,-40.89866 122.29039,-108.44357 1.3124,-10.01145 1.5636,-32.08625 1.5636,-137.40685 V 67.473853 H 661.14404 622.96115 V 182.58678 c 0,115.58403 -0.33444,128.04416 -3.80193,141.63147 -3.17866,12.45573 -11.064,24.72043 -19.60978,30.50065 -18.37707,12.42997 -60.87336,13.82228 -84.33724,2.76319 -11.35077,-5.34991 -21.17196,-18.02533 -25.76676,-33.255 -1.74754,-5.79206 -1.89639,-14.65618 -2.2082,-131.482 L 486.90242,67.473853 h -38.18489 -38.185 l 0.36438,132.070927 c 0.39921,144.51536 0.0985,137.41993 6.6115,158.74663 7.72052,25.29979 21.15272,43.71822 41.52574,56.94048 11.31159,7.34128 17.04321,10.15144 29.55703,14.49138 24.38583,8.45737 54.92287,11.64885 86.88128,9.08017 z m 410.88278,-14.86889 c 0.32093,-4.74671 0.7981,-20.28137 1.06036,-34.5215 l 0.47686,-25.89114 h -84.1319 -84.13193 v -41.32119 -41.32119 h 68.51998 68.51994 v -34.52151 -34.5215 H 888.14908 819.6291 V 178.36761 144.8987 l 80.11775,-0.26807 80.11774,-0.26806 -0.0876,-19.35297 c -0.0482,-10.64414 -0.39483,-27.944117 -0.76976,-38.444407 l -0.68182,-19.09145 H 857.13274 735.94052 V 250.01941 432.56494 h 124.91581 124.91578 z"
     id="path25"
     inkscape:connector-curvature="0" />
  <path
     style="fill:#56b263;fill-opacity:1;stroke:#56b263;stroke-width:1.04610622;stroke-opacity:1"
     d="m 0.5279102,511.55917 v -90.47501 l 5.4920985,2.4733 C 15.253557,427.71574 137.44899,484.88827 165.612,498.227 c 14.56112,6.89657 26.47985,12.90111 26.48599,13.34334 0.0106,0.68465 -189.5991999,90.46382 -191.0544929,90.46382 -0.2833325,0 -0.51514722,-40.71377 -0.51514722,-90.47499 z"
     id="path27"
     inkscape:connector-curvature="0" />
  <path
     style="fill:#ec1c24;fill-opacity:1;stroke:#ec1c24;stroke-width:1.04610622;stroke-opacity:1"
     d="M 0.5279102,724.09188 V 603.43791 l 5.4920985,-2.5127 c 3.020611,-1.38196 46.4471033,-21.82227 96.5032713,-45.42293 l 91.01128,-42.91021 428.64203,0.34101 428.64201,0.34102 -0.033,137.22208 c -0.044,152.3404 0.1651,147.47009 -6.8279,161.61981 -6.8264,13.81235 -18.9725,23.38681 -37.5951,29.63509 l -7.32271,2.45695 -499.25425,0.26908 -499.25417595,0.2691 z M 704.00872,773.05989 c 18.18071,-1.5373 35.98173,-11.31939 44.3611,-24.37751 6.18403,-9.63695 7.78666,-15.95055 7.88241,-31.05347 0.11129,-17.55086 -1.27439,-20.94998 -13.33485,-32.71102 -10.02705,-9.77811 -17.55498,-13.90206 -40.45213,-22.16035 -17.07596,-6.1588 -22.6203,-9.01978 -26.56549,-13.70835 -5.52481,-6.56589 -2.63983,-16.34532 6.14291,-20.82298 4.93764,-2.5173 6.02012,-2.64743 20.92212,-2.51479 13.7515,0.12235 17.28363,0.53592 28.26837,3.30945 6.90428,1.74328 12.6387,3.08561 12.74308,2.98298 0.10401,-0.10294 1.18367,-6.53475 2.39835,-14.29358 1.2147,-7.75882 2.45458,-15.37131 2.75537,-16.91664 0.52714,-2.70856 0.23768,-2.9073 -8.04085,-5.52251 -14.13306,-4.46464 -27.49852,-6.10977 -44.82695,-5.51763 -11.98938,0.4097 -16.69319,1.01461 -22.0418,2.83504 -19.40723,6.60514 -30.54565,16.98393 -35.52809,33.10521 -6.12577,19.82084 -2.52453,38.49332 9.79831,50.80389 7.65357,7.6459 18.59471,13.60902 36.8955,20.10865 28.30725,10.05345 32.75957,13.66342 31.73395,25.7301 -0.28771,3.38226 -1.70833,6.10421 -5.0639,9.70107 -8.31336,8.91124 -40.1874,7.94106 -61.66582,-1.877 -4.7513,-2.17187 -8.845,-3.74259 -9.09709,-3.49047 -0.25228,0.25191 -1.42134,6.79441 -2.59831,14.53855 -1.17698,7.74412 -2.38053,15.12936 -2.67457,16.41164 -0.45452,1.98211 0.36881,2.78656 5.49487,5.36915 11.29751,5.69182 28.09279,9.94951 43.16621,10.94287 4.73758,0.31217 5.98394,0.25594 19.3273,-0.87233 z m -533.48848,-3.08771 c 3.4521,-0.91716 9.73021,-2.89344 13.95117,-4.39169 7.59277,-2.69508 7.66867,-2.75889 7.1133,-5.98488 -0.30852,-1.79343 -1.07296,-7.96825 -1.69844,-13.72185 -0.62561,-5.75359 -1.39534,-11.76908 -1.71088,-13.36772 l -0.5742,-2.90669 -3.31011,2.01962 c -9.52528,5.81153 -38.67499,7.0812 -51.43108,2.2401 -11.7713,-4.46725 -18.8007,-14.5068 -21.40834,-30.57583 -1.6878,-10.40078 -1.35083,-39.36625 0.56545,-48.64578 4.87207,-23.58725 16.11947,-30.69756 46.30114,-29.27041 11.51032,0.54423 15.8901,1.26548 26.88922,4.42775 2.0366,0.58547 2.21882,-0.16759 3.96078,-16.3651 1.466,-13.63246 1.56399,-17.14072 0.49764,-17.79998 -2.97555,-1.83896 -17.72646,-5.13297 -28.03807,-6.26108 -20.09226,-2.19824 -40.51735,0.51695 -54.92057,7.30081 -25.653426,12.08267 -39.269835,41.01318 -39.205642,83.29964 0.05473,32.6064 7.958947,57.64576 22.981101,72.75265 9.694541,9.74916 20.818161,15.26641 37.000391,18.35187 9.65803,1.84148 34.33708,1.20988 43.03659,-1.10143 z M 488.32776,769.552 c 20.97805,-5.59013 34.77616,-17.87758 42.21731,-37.59513 5.17714,-13.71837 6.73019,-23.37205 7.35375,-45.71118 1.12054,-40.14281 -4.37268,-59.69933 -21.60526,-76.91731 -12.10401,-12.09361 -23.45268,-16.81522 -45.45623,-18.91191 -12.7038,-1.21053 -30.3387,-0.0493 -40.62067,2.67459 -19.62375,5.19891 -34.24927,18.41267 -41.67559,37.65271 -7.85755,20.35735 -9.24648,61.77135 -2.96657,88.45425 5.75117,24.43679 21.19952,42.45759 42.14158,49.15923 14.81576,4.74114 45.06566,5.3374 60.61168,1.19475 z M 250.54729,732.27437 v -33.99844 h 33.99847 33.99849 v 33.99844 33.99849 h 19.3529 19.35303 V 678.92297 591.5731 h -19.35303 -19.3529 v 33.99844 33.99845 H 284.54576 250.54729 V 625.57154 591.5731 h -19.35291 -19.35304 v 87.34987 87.34989 h 19.35304 19.35291 z m 356.72226,-53.3514 V 591.5731 h -19.35296 -19.35294 v 87.34987 87.34989 h 19.35294 19.35296 z m 212.35958,0 V 591.5731 h -19.35296 -19.35298 v 87.34987 87.34989 h 19.35298 19.35296 z m 75.31965,56.97854 v -30.37134 l 11.64506,0.29575 11.64505,0.29574 15.29219,29.81399 15.29219,29.81404 23.39556,0.28186 c 19.72266,0.23769 23.30722,0.0515 22.83269,-1.18509 -0.30962,-0.80681 -9.3322,-16.87535 -20.0502,-35.70785 -10.71798,-18.83251 -19.34508,-34.36279 -19.17129,-34.51175 0.17379,-0.14903 3.04182,-1.59296 6.37343,-3.20891 17.14876,-8.31769 25.6702,-30.53378 21.39385,-55.77561 -3.03765,-17.93028 -10.93738,-29.24139 -25.32693,-36.26393 -14.19493,-6.92758 -15.58864,-7.10016 -60.96785,-7.54943 l -41.05969,-0.40652 v 87.42519 87.42513 h 19.35298 19.35296 z"
     id="path29"
     inkscape:connector-curvature="0" />
  <path
     style="fill:#ffffff;fill-opacity:1;stroke:#ffffff;stroke-width:1.04610622;stroke-opacity:1"
     d="m 298.59591,439.62615 c -4.17578,-5.89742 -7.70486,-10.87287 -7.84247,-11.05653 -0.13767,-0.18365 -6.06277,1.10072 -13.16697,2.85428 -38.18859,9.42606 -89.91058,8.0764 -123.66779,-3.22712 -45.25882,-15.15477 -72.602704,-48.20946 -84.755814,-102.45688 -5.95494,-26.58077 -6.393083,-31.78828 -6.371979,-75.72049 0.02183,-37.61839 0.204464,-41.85805 2.386494,-54.39753 5.962899,-34.26383 13.686377,-56.09413 26.832046,-75.84034 17.604153,-26.443647 44.788943,-43.573317 80.445353,-50.690317 46.13555,-9.20862 100.83394,-4.41081 132.95803,11.66228 44.24208,22.136257 66.82931,64.656967 72.8468,137.134897 1.59314,19.18836 0.67264,69.56755 -1.5606,85.41414 -4.91635,34.88574 -13.13254,59.61123 -26.49705,79.7396 l -3.75723,5.65881 18.21753,17.62408 c 10.01961,9.69327 17.98217,17.87025 17.69442,18.17108 -0.43861,0.45916 -74.95461,25.85263 -75.86283,25.85263 -0.16832,0 -3.72215,-4.82514 -7.89794,-10.72259 z m -52.23307,-75.55642 c 10.70113,-2.50158 17.77097,-6.0107 24.4996,-12.16029 14.78568,-13.51322 20.68713,-30.26655 23.73125,-67.36853 1.52026,-18.52945 0.60481,-65.98208 -1.56465,-81.07323 -5.45905,-37.98002 -17.53497,-55.47793 -43.00478,-62.31345 -9.7114,-2.6063 -39.25639,-3.22439 -51.78224,-1.08332 -28.36741,4.84897 -43.23892,22.70283 -48.50768,58.23556 -2.53721,17.1111 -4.05122,47.77837 -3.3019,66.88146 2.74466,69.97195 16.32199,94.12607 56.49252,100.50019 8.75364,1.389 34.70993,0.42196 43.43788,-1.61842 z"
     id="path31"
     inkscape:connector-curvature="0" />
  <path
     style="fill:#ffffff;fill-opacity:1;stroke:#ffffff;stroke-width:1.04610622;stroke-opacity:1"
     d="m 536.13432,438.2002 c -47.62554,-4.36317 -82.58024,-20.84541 -102.13082,-48.15787 -9.63288,-13.45721 -18.04634,-35.41836 -20.33922,-53.0897 -0.68684,-5.29485 -1.32119,-57.25069 -1.68988,-138.45396 L 411.3838,68.519953 h 37.26856 37.26847 l 0.008,119.517657 c 0.008,133.08018 -0.0329,132.15953 6.58437,146.48231 6.92548,14.98932 18.11965,23.94707 35.77551,28.62822 10.52838,2.79144 43.98109,2.79655 53.87447,0.009 19.32063,-5.44522 29.35743,-14.77293 36.21014,-33.65203 5.37713,-14.81392 5.63406,-21.47116 5.63406,-145.96642 V 68.519953 h 37.20277 37.20278 l -0.39791,129.978717 c -0.35999,117.60555 -0.56891,130.85123 -2.19552,139.14443 -11.63221,59.30573 -44.40912,89.62205 -106.62481,98.62033 -10.63854,1.53865 -44.0812,2.75937 -53.06006,1.93677 z"
     id="path33"
     inkscape:connector-curvature="0" />
  <path
     style="fill:#ffffff;fill-opacity:1;stroke:#ffffff;stroke-width:1.04610622;stroke-opacity:1"
     d="M 736.98675,250.01941 V 68.519953 h 120.13886 120.1389 l 0.68641,15.85792 c 0.37757,8.72187 0.68642,25.668787 0.68642,37.659837 v 21.8019 h -80.02717 -80.02716 v 34.52151 34.52151 h 68.51999 68.51994 v 33.47541 33.47539 H 887.103 818.58301 v 42.36731 42.3673 h 84.25334 84.2533 l -0.59948,24.84501 c -0.32969,13.66479 -0.86152,28.72871 -1.18175,33.47543 l -0.58228,8.63034 H 860.85643 736.98675 Z"
     id="path35"
     inkscape:connector-curvature="0" />
  <path
     style="fill:#fff229;fill-opacity:1;stroke:#fff229;stroke-width:0.52305311;stroke-opacity:1"
     d="M 131.01414,770.89927 C 108.08577,767.9274 90.415227,756.312 80.317854,737.5749 71.34526,720.92514 67.000818,695.92443 68.548307,669.84662 c 2.444864,-41.19772 17.924402,-66.36127 46.512643,-75.61104 17.89047,-5.78846 38.52697,-6.41137 60.70738,-1.83251 8.76193,1.80878 13.39031,3.42871 13.75495,4.8142 0.59496,2.26015 -2.37195,30.50268 -3.30192,31.43268 -0.2691,0.26837 -3.10799,-0.21468 -6.76047,-1.15013 -13.18074,-3.37591 -31.64778,-4.10321 -42.95476,-1.69172 -11.79559,2.51567 -18.87114,8.72145 -22.826,20.02 -3.21573,9.18686 -4.67354,22.754 -4.20446,39.12751 0.51295,17.91727 1.86971,25.1955 6.40379,34.3622 2.41536,4.88324 3.3915,6.28377 5.87718,8.4326 7.67065,6.63104 14.46499,8.9947 28.08742,9.77115 11.92582,0.67972 26.6872,-1.41077 33.43982,-4.73577 1.99424,-0.98193 3.72265,-1.68861 3.84087,-1.57038 0.34686,0.34649 3.77889,27.40336 3.77889,29.78859 0,1.45397 -0.68687,1.79781 -9.67641,4.84332 -9.52327,3.22634 -13.74334,4.21796 -20.66065,4.85475 -5.6104,0.51645 -26.03747,0.65282 -29.55244,0.19717 z"
     id="path37"
     inkscape:connector-curvature="0" />
  <path
     style="fill:#fff229;fill-opacity:1;stroke:#fff229;stroke-width:0.52305311;stroke-opacity:1"
     d="m 212.87194,678.94052 v -86.5653 h 18.56842 18.56839 v 33.99844 33.99844 h 34.5215 34.52146 v -33.99844 -33.99844 h 18.82992 18.82989 v 86.5653 86.56527 h -18.82989 -18.82992 v -33.99844 -33.99848 h -34.52146 -34.5215 v 33.99848 33.99844 h -18.56839 -18.56842 z"
     id="path39"
     inkscape:connector-curvature="0" />
  <path
     style="fill:#fff229;fill-opacity:1;stroke:#fff229;stroke-width:0.52305311;stroke-opacity:1"
     d="m 450.07648,771.27019 c -12.84915,-0.96694 -21.54963,-2.84576 -28.70467,-6.19873 -18.74929,-8.78619 -31.55658,-26.83026 -36.14469,-50.92368 -4.26319,-22.38695 -3.59724,-55.01206 1.53216,-75.06441 3.12486,-12.21592 8.40607,-21.76705 16.52307,-29.88224 13.71603,-13.71278 31.27372,-19.02757 60.30125,-18.25343 25.54641,0.6813 39.52449,5.91677 52.96695,19.83869 11.65596,12.0716 16.88594,23.59577 19.65484,43.3091 0.95865,6.82465 0.95843,41.85606 -2.1e-4,50.47461 -1.40079,12.59355 -4.14527,22.83736 -8.72104,32.55148 -3.20529,6.80452 -6.95094,11.97102 -12.52154,17.27113 -9.24374,8.79491 -21.15973,14.18189 -35.52431,16.05977 -7.4345,0.97185 -21.94294,1.376 -29.36181,0.81778 z M 472.0448,736.4073 c 9.95529,-1.87412 17.27562,-8.9171 20.34731,-19.57667 3.05603,-10.60498 4.0651,-20.20734 4.04191,-38.46655 -0.022,-15.80411 -0.44839,-20.92496 -2.46762,-29.49911 -1.71179,-7.26827 -3.70268,-11.40598 -7.12377,-14.80511 -3.5584,-3.53556 -6.74067,-5.36061 -11.7884,-6.76067 -3.55728,-0.98676 -5.40508,-1.12488 -15.03971,-1.12488 -9.63462,0 -11.48235,0.13842 -15.03975,1.12488 -10.03002,2.78198 -15.65344,9.03256 -18.67558,20.75806 -2.03353,7.89027 -2.36648,12.74069 -2.37097,34.54463 -0.003,19.35706 0.0767,21.39665 1.15486,27.26547 1.2815,7.01198 2.4905,10.51074 5.14089,14.87691 2.10311,3.46447 6.52466,7.78241 9.54944,9.32552 6.52835,3.33049 21.30943,4.40114 32.27139,2.33752 z"
     id="path41"
     inkscape:connector-curvature="0" />
  <path
     style="fill:#fff229;fill-opacity:1;stroke:#fff229;stroke-width:0.52305311;stroke-opacity:1"
     d="m 569.59417,678.94052 v -86.5653 h 18.56839 18.56838 v 86.5653 86.56527 h -18.56838 -18.56839 z"
     id="path43"
     inkscape:connector-curvature="0" />
  <path
     style="fill:#fff229;fill-opacity:1;stroke:#fff229;stroke-width:0.52305311;stroke-opacity:1"
     d="m 681.52754,772.99652 c -16.07287,-1.64746 -37.75692,-8.10733 -43.82523,-13.05589 l -1.19319,-0.97306 2.38163,-14.64547 c 1.30988,-8.05504 2.55368,-15.17086 2.76395,-15.81298 0.37963,-1.15924 0.42404,-1.14934 6.28048,1.39973 14.42815,6.28004 26.71404,8.9353 41.43118,8.95417 17.98143,0.022 27.62719,-5.97876 28.61887,-17.80734 0.86513,-10.31867 -4.75741,-15.0612 -27.82734,-23.4723 -13.41051,-4.88932 -17.1022,-6.39396 -23.40051,-9.53734 -10.2237,-5.10257 -18.08739,-11.25475 -22.4029,-17.52717 -2.29339,-3.33329 -5.43641,-10.29858 -6.46684,-14.33124 -0.47782,-1.86989 -1.00643,-5.98895 -1.17465,-9.15342 -0.8989,-16.90917 5.5425,-33.43255 16.54644,-42.44432 6.42828,-5.26453 16.10927,-10.10834 24.48334,-12.25008 8.46902,-2.16599 30.32546,-2.55542 43.60814,-0.77697 9.72277,1.30182 26.37595,5.88515 26.96553,7.42157 0.1519,0.39623 -0.67822,6.66211 -1.8452,13.92408 -1.16691,7.26198 -2.2786,14.32166 -2.47039,15.68812 -0.19168,1.36651 -0.54368,2.48453 -0.78182,2.48453 -0.23804,0 -4.97775,-1.08268 -10.53239,-2.40589 -32.37315,-7.71189 -54.41427,-5.10028 -59.03786,6.99524 -3.3433,8.74617 0.26324,15.37963 11.27864,20.74497 2.5891,1.26109 10.80818,4.57343 18.26462,7.36074 24.09429,9.00682 29.4548,12.07661 40.58624,23.24244 10.62394,10.65676 11.54149,13.00104 11.54369,29.49342 0.002,10.85509 -0.47128,15.51302 -2.10762,20.76643 -1.30187,4.17967 -5.03974,10.84881 -8.42621,15.03411 -7.39565,9.14015 -23.05492,17.48403 -36.54481,19.47251 -8.56167,1.262 -20.80558,1.8172 -26.71576,1.21141 z"
     id="path45"
     inkscape:connector-curvature="0" />
  <path
     style="fill:#fff229;fill-opacity:1;stroke:#fff229;stroke-width:0.52305311;stroke-opacity:1"
     d="m 781.95372,678.94052 v -86.5653 h 18.56842 18.56838 v 86.5653 86.56527 h -18.56838 -18.56842 z"
     id="path47"
     inkscape:connector-curvature="0" />
  <path
     inkscape:connector-curvature="0"
     id="use51"
     d="m 857.2734,678.94052 v -86.5653 l 21.57594,0.0152 c 29.39298,0.0182 56.03528,0.78431 62.29648,1.7918 5.62894,0.90584 9.52864,2.24766 16.03071,5.51616 11.15832,5.60907 17.94813,12.63154 22.00223,22.75611 6.39699,15.97575 6.19303,36.85179 -0.49503,50.6674 -4.25538,8.7904 -9.59594,14.06435 -18.79964,18.56521 l -5.26335,2.5739 8.02558,14.309 c 4.41406,7.86994 13.34428,23.72396 19.84484,35.23111 l 11.81928,20.92215 -1.96002,0.44307 c -1.9439,0.43945 -42.29341,0.008 -43.05149,-0.46278 -0.21724,-0.13433 -7.16172,-13.4834 -15.43221,-29.66475 -8.27045,-16.1813 -15.05911,-29.45034 -15.0859,-29.48666 -0.0256,-0.0365 -5.52113,-0.23478 -12.20969,-0.44088 l -12.16099,-0.37483 v 30.3857 30.38569 h -18.56838 -18.56839 z m 70.87369,-4.64668 c 7.70577,-2.11283 11.36946,-5.31818 13.32865,-11.66132 3.46408,-11.21532 2.20546,-24.54218 -2.77354,-29.36802 -3.35806,-3.25471 -4.43856,-3.41302 -24.8083,-3.63421 l -18.43764,-0.20008 v 23.1138 23.11383 l 14.77625,-0.25157 c 11.48053,-0.1957 15.47625,-0.44361 17.91458,-1.11217 z"
     style="fill:#fff229;fill-opacity:1;stroke:#fff229;stroke-width:0.52305311;stroke-opacity:1" />
  <path
     style="fill:#ec1c24;fill-opacity:1;stroke:#ec1c24;stroke-width:0.26156372;stroke-opacity:1"
     d="m 453.58076,736.87918 c -5.62923,-0.52785 -10.72923,-1.68306 -13.42019,-3.03975 -2.75353,-1.38826 -6.8647,-5.20881 -9.01612,-8.37879 -2.42479,-3.57266 -4.19876,-8.09753 -5.26339,-13.42453 -1.39755,-6.99281 -1.39787,-6.99796 -1.52605,-24.52664 -0.12599,-17.21905 0.13872,-27.22889 0.85198,-32.23247 1.04013,-7.29131 3.52954,-14.64252 6.24073,-18.42615 4.21846,-5.88688 10.76037,-9.34731 19.12477,-10.1162 4.42659,-0.40685 19.77815,-0.14464 22.25265,0.3803 4.64357,0.98489 8.69228,2.84475 11.83082,5.4347 5.07634,4.18922 7.49324,9.09207 9.59194,19.45758 1.511,7.46242 1.57584,8.56597 1.56762,26.67951 -0.008,17.48615 -0.14858,20.20448 -1.43954,27.78896 -1.93059,11.34431 -4.43771,17.49528 -9.12831,22.39503 -4.19266,4.37952 -9.07871,6.68316 -16.19955,7.63753 -3.66929,0.49174 -12.03837,0.69244 -15.46769,0.37087 z"
     id="path53"
     inkscape:connector-curvature="0" />
  <path
     style="fill:#ec1c24;fill-opacity:1;stroke:#ec1c24;stroke-width:0.26156372;stroke-opacity:1"
     d="m 895.90082,675.08173 c -0.10841,-0.10992 -0.19607,-10.34317 -0.19607,-22.74039 v -22.5404 l 11.18184,0.10082 c 13.47641,0.12084 24.22221,0.47919 26.34202,0.87829 4.63426,0.87244 7.56623,4.43535 9.09872,11.05652 0.45923,1.98434 0.55713,3.25826 0.56621,7.36884 0.0106,5.25029 -0.23477,7.41789 -1.32345,11.63957 -1.64458,6.3783 -4.61489,9.82661 -10.37928,12.04959 -3.06406,1.18162 -4.94962,1.51191 -10.24517,1.79465 -6.54621,0.3494 -24.80632,0.63598 -25.0447,0.39307 z"
     id="path55"
     inkscape:connector-curvature="0" />
  <path
     style="fill:#005aa9;fill-opacity:1;stroke:#005aa9;stroke-width:0.73981386;stroke-opacity:1"
     d="m 198.54358,364.08321 c -31.31235,-7.12549 -44.06066,-25.34305 -49.15946,-70.24932 -3.58584,-31.58077 -2.41806,-78.68349 2.54914,-102.82455 6.61705,-32.15933 22.38261,-47.5825 51.78903,-50.66441 14.17319,-1.48541 37.46643,-0.54172 46.88754,1.8995 26.20537,6.79048 39.26899,29.33015 42.7075,73.6865 1.41383,18.23942 1.20583,63.80797 -0.35233,77.16314 -3.06666,26.28323 -7.03072,39.07931 -15.66435,50.56458 -7.93959,10.56197 -18.10038,16.74947 -32.51871,19.8025 -7.76032,1.64321 -39.85353,2.075 -46.23829,0.62209 z"
     id="path57"
     inkscape:connector-curvature="0" />
</svg>
